<?xml version="1.0" encoding="UTF-8" standalone="no"?>
<!-- Created with Inkscape (http://www.inkscape.org/) -->

<svg
   width="136.28117mm"
   height="19.607067mm"
   viewBox="0 0 136.28117 19.607067"
   version="1.1"
   id="svg1"
   xml:space="preserve"
   xmlns="http://www.w3.org/2000/svg"
   xmlns:svg="http://www.w3.org/2000/svg"><defs
     id="defs1" /><g
     id="layer1"
     transform="translate(-18.707398,-54.604082)"><path
       d="m 26.372386,68.530573 q 0.09922,-0.413411 0.286632,-0.84336 0.187413,-0.43546 0.440972,-0.870921 0.25356,-0.43546 0.562241,-0.854384 0.314193,-0.424437 0.661459,-0.8158 0.352778,-0.396875 0.722092,-0.744141 0.374827,-0.352778 0.749654,-0.644923 0.176389,-0.121267 0.325217,-0.159852 0.148828,-0.03858 0.314193,-0.03858 0.176389,0 0.314193,0.05512 0.137804,0.04961 0.275608,0.187414 0.0441,0.04961 0.09371,0.08819 0.04961,0.03858 0.09371,0.03858 0.01102,0 0.02756,-0.02205 0.01654,-0.02756 0.03307,-0.06063 0.02205,-0.03307 0.04961,-0.06615 0.02756,-0.03859 0.06615,-0.05512 0.09371,-0.0441 0.220486,-0.05512 0.132292,-0.01654 0.264584,-0.01654 0.248047,0 0.479557,0.09371 0.231511,0.08819 0.4079,0.253559 0.418924,0.391363 0.633898,0.937067 0.220487,0.545704 0.220487,1.17409 0,0.56224 -0.165365,1.212675 -0.143316,0.573264 -0.413412,1.113456 -0.264584,0.540191 -0.628386,1.014237 -0.35829,0.474045 -0.804775,0.865409 -0.440973,0.391363 -0.942579,0.672483 -0.501607,0.28112 -1.04731,0.435461 -0.545704,0.159852 -1.107944,0.159852 -0.523655,0 -0.942579,-0.159852 -0.413412,-0.159853 -0.705557,-0.451997 -0.286632,-0.292145 -0.440972,-0.694532 -0.148829,-0.402388 -0.148829,-0.89297 0,-0.209462 0.02205,-0.418924 0.02756,-0.214974 0.08268,-0.435461 z m 0.931554,0.369315 q -0.06063,0.275608 -0.06063,0.496094 0,0.308681 0.104731,0.545704 0.110243,0.231511 0.303168,0.391363 0.198438,0.154341 0.468534,0.237023 0.275608,0.07717 0.600825,0.07717 0.385851,0 0.782726,-0.121267 0.402388,-0.121268 0.782727,-0.352778 0.380339,-0.231511 0.733117,-0.556728 0.352778,-0.325218 0.650435,-0.73863 0.303168,-0.413411 0.534679,-0.898481 0.237023,-0.48507 0.380339,-1.030774 0.05512,-0.198438 0.07717,-0.413412 0.02756,-0.214974 0.02756,-0.413412 0,-0.319705 -0.07166,-0.611849 -0.07166,-0.292145 -0.237023,-0.518143 -0.165365,-0.225999 -0.43546,-0.358291 -0.270096,-0.137804 -0.661459,-0.137804 -0.05512,0 -0.08819,0.04961 -0.02756,0.0441 -0.06063,0.115755 -0.02756,0.06063 -0.06615,0.12678 -0.03307,0.06615 -0.09371,0.121267 -0.05512,0.04961 -0.143316,0.08268 -0.08268,0.03307 -0.209462,0.03307 -0.09371,0 -0.165365,-0.03858 -0.07166,-0.0441 -0.143316,-0.115756 -0.03307,-0.03307 -0.05512,-0.04961 -0.02205,-0.02205 -0.04961,-0.02205 -0.04961,0 -0.132292,0.0441 -0.07717,0.0441 -0.165365,0.104731 -0.08268,0.06063 -0.165365,0.12678 -0.07717,0.06615 -0.121267,0.115755 -0.374827,0.385852 -0.749654,0.843361 -0.369314,0.451997 -0.683507,0.937067 -0.314193,0.48507 -0.551216,0.981164 -0.231511,0.490582 -0.336242,0.948091 z m 4.012852,-5.633426 z"
       id="text20"
       style="font-size:11.2889px;font-family:'MV Boli';-inkscape-font-specification:'MV Boli, Normal';fill:#00ff00;stroke-width:0.265"
       aria-label="O" /><path
       d="m 39.954345,68.866815 q 0,0.396875 -0.237023,0.8158 -0.231511,0.418924 -0.744141,0.782726 -0.159853,0.110243 -0.391364,0.242535 -0.225998,0.12678 -0.496094,0.259071 -0.264584,0.132292 -0.56224,0.259072 -0.292145,0.121267 -0.595313,0.214974 -0.297657,0.09371 -0.584289,0.148828 -0.286632,0.06063 -0.540192,0.06063 -0.126779,0 -0.220486,-0.02205 -0.08819,-0.01654 -0.165365,-0.06615 -0.07717,-0.04961 -0.148828,-0.137804 -0.07166,-0.08819 -0.15434,-0.220487 -0.132292,0.09922 -0.28112,0.143316 -0.143317,0.04961 -0.292145,0.04961 h -0.15434 q -0.0441,0 -0.08268,-0.03307 -0.03858,-0.02756 -0.07166,-0.07166 -0.02756,-0.0441 -0.0441,-0.09371 -0.01654,-0.05512 -0.01654,-0.104731 0,-0.28112 0.07717,-0.534679 0.08268,-0.259072 0.187413,-0.512631 0.154341,-0.468533 0.314193,-0.981164 0.159853,-0.518143 0.308681,-1.036286 0.148828,-0.518143 0.28112,-1.019749 0.137804,-0.507119 0.253559,-0.959116 l 0.154341,-0.63941 q 0,-0.01654 -0.0055,-0.09371 -0.0055,-0.07717 -0.01654,-0.165365 -0.0055,-0.09371 -0.01102,-0.170877 l -0.0055,-0.07166 0.02756,-0.09371 -0.0055,0.0055 q 0.02756,-0.09922 0.07717,-0.225999 0.04961,-0.126779 0.121267,-0.237022 0.07166,-0.110244 0.154341,-0.181902 0.08819,-0.07717 0.187413,-0.07717 0.09371,0 0.237023,0.01654 0.148828,0.01102 0.264583,0.01102 0.05512,0 0.104731,-0.0055 0.05512,-0.0055 0.132292,-0.02756 0.08268,-0.02205 0.209462,-0.06063 0.132292,-0.0441 0.341754,-0.115755 0.314193,-0.110243 0.573264,-0.181901 0.264584,-0.07717 0.496095,-0.121268 0.237023,-0.04961 0.457509,-0.07166 0.220486,-0.02205 0.451997,-0.02205 0.292144,0 0.56224,0.05512 0.275608,0.05512 0.48507,0.181901 0.214974,0.121268 0.341754,0.325218 0.126779,0.198437 0.126779,0.48507 0,0.490582 -0.259071,0.881945 -0.259071,0.391363 -0.733117,0.727605 -0.474046,0.336241 -1.141017,0.628386 -0.661459,0.286632 -1.477258,0.567752 0.650434,0.09922 1.118968,0.237023 0.474045,0.132292 0.782726,0.314193 0.308681,0.181901 0.457509,0.413412 0.148829,0.231511 0.148829,0.529167 z m -1.874134,-0.507119 q -0.05512,-0.01102 -0.20395,-0.03858 -0.143316,-0.02756 -0.341754,-0.06063 -0.192925,-0.03307 -0.418924,-0.06615 -0.225998,-0.03859 -0.429948,-0.07166 -0.20395,-0.03858 -0.374827,-0.07166 -0.165365,-0.03307 -0.242535,-0.05512 -0.209462,0.677996 -0.369315,1.300869 -0.15434,0.617362 -0.314193,1.245748 l 0.363803,0.03859 q 0.12678,0.01102 0.220486,0.02205 0.09922,0.0055 0.115756,0.0055 0.220486,-0.02205 0.485069,-0.08268 0.264584,-0.06615 0.545704,-0.159853 0.286632,-0.09922 0.578777,-0.225998 0.292144,-0.132292 0.573264,-0.28112 0.104731,-0.06615 0.220487,-0.159853 0.115755,-0.09371 0.209462,-0.20395 0.09371,-0.115755 0.15434,-0.242535 0.06063,-0.126779 0.06063,-0.259071 0,-0.220487 -0.231511,-0.380339 -0.23151,-0.165365 -0.600825,-0.25356 z m -1.741842,-1.27882 q 0.308681,-0.09922 0.650435,-0.231511 0.341753,-0.137804 0.700044,-0.297656 0.363802,-0.159853 0.733117,-0.336242 0.374826,-0.181901 0.744141,-0.363803 h -0.0055 q 0.132292,-0.07166 0.259071,-0.170876 0.132292,-0.104731 0.231511,-0.220487 0.104731,-0.121267 0.165365,-0.248047 0.06615,-0.132292 0.06615,-0.259071 0,-0.08268 -0.03858,-0.165365 -0.03859,-0.08268 -0.121268,-0.148828 -0.08268,-0.06615 -0.220486,-0.104731 -0.132292,-0.03859 -0.33073,-0.03859 -0.275608,0 -0.622874,0.07166 -0.347266,0.06615 -0.672483,0.170876 -0.325217,0.104731 -0.578777,0.231511 -0.253559,0.12678 -0.336241,0.242535 -0.01654,0.02756 -0.04961,0.121268 -0.02756,0.09371 -0.06615,0.209462 -0.03859,0.110243 -0.08268,0.214974 -0.03859,0.104731 -0.07717,0.15434 -0.01102,0.05512 -0.0441,0.170877 -0.03307,0.110243 -0.08268,0.264584 -0.0441,0.15434 -0.104731,0.341754 -0.05512,0.187413 -0.115755,0.391363 z"
       id="text19"
       style="font-size:11.2889px;font-family:'MV Boli';-inkscape-font-specification:'MV Boli, Normal';fill:#ff0000;stroke-width:0.265"
       aria-label="B" /><path
       d="m 41.148643,73.742626 q 0,-0.132292 0.06615,-0.270096 0.07166,-0.132292 0.187413,-0.28112 0.121268,-0.143316 0.275608,-0.303169 0.159853,-0.159852 0.33073,-0.336241 0.325217,-0.33073 0.683507,-0.68902 0.358291,-0.358291 0.683508,-0.738629 0.137804,-0.165365 0.220486,-0.270096 0.08268,-0.104731 0.121268,-0.170877 0.0441,-0.07166 0.05512,-0.121268 0.01654,-0.04961 0.02205,-0.09922 -0.231511,-0.297657 -0.413412,-0.644923 -0.176389,-0.347266 -0.319705,-0.722093 -0.137804,-0.380339 -0.253559,-0.76619 -0.110244,-0.385851 -0.209462,-0.755165 -0.09371,-0.336242 -0.181902,-0.677996 -0.08268,-0.341754 -0.220486,-0.589801 -0.104731,-0.187413 -0.181901,-0.385851 -0.07166,-0.20395 -0.07166,-0.446485 0,-0.104731 0.02205,-0.242535 0.02756,-0.143316 0.08819,-0.264583 0.06615,-0.121268 0.165365,-0.20395 0.104731,-0.08819 0.253559,-0.08819 0.159853,0 0.297657,0.110243 0.137803,0.110244 0.248047,0.28112 0.110243,0.165365 0.187413,0.363803 0.07717,0.192925 0.121268,0.35829 0.05512,0.237023 0.132291,0.589801 0.08268,0.352778 0.159853,0.722093 0.08268,0.369315 0.159853,0.700044 0.07717,0.33073 0.137803,0.529167 0.07166,0.248047 0.154341,0.468534 0.08268,0.214974 0.165365,0.374826 0.08268,0.154341 0.159852,0.248048 0.08268,0.08819 0.154341,0.08819 0.05512,0 0.170877,-0.148828 0.451997,-0.600825 0.937067,-1.284333 0.490582,-0.68902 0.953603,-1.361503 0.170877,-0.248047 0.303169,-0.457509 0.132291,-0.209462 0.237022,-0.396876 0.110244,-0.192925 0.198438,-0.369314 0.08819,-0.181902 0.165365,-0.363803 l 0.143316,-0.578776 q 0.02205,-0.08819 0.07166,-0.176389 0.05512,-0.09371 0.121268,-0.165365 0.07166,-0.07717 0.159852,-0.121268 0.09371,-0.04961 0.20395,-0.04961 0.143316,0 0.248047,0.06063 0.104731,0.05512 0.170877,0.148828 0.06615,0.09371 0.09922,0.220486 0.03307,0.121268 0.03307,0.25356 0,0.148828 -0.06063,0.341753 -0.05512,0.192926 -0.148828,0.396876 -0.09371,0.20395 -0.209462,0.402387 -0.115756,0.198438 -0.225999,0.358291 -0.788238,1.12448 -1.604038,2.282033 -0.810287,1.152041 -1.648135,2.210376 -0.744142,0.942579 -1.460722,1.747354 -0.711069,0.804775 -1.300869,1.4056 -0.12678,0.12678 -0.286633,0.237023 -0.159852,0.110243 -0.336241,0.110243 -0.09371,0 -0.159853,-0.0441 -0.06063,-0.03859 -0.09922,-0.104731 -0.03858,-0.06615 -0.06063,-0.15434 -0.01654,-0.08268 -0.01654,-0.165365 z"
       id="text18"
       style="font-size:11.2889px;font-family:'MV Boli';-inkscape-font-specification:'MV Boli, Normal';fill:#008000;stroke-width:0.265"
       aria-label="Y" /><path
       d="m 51.866564,68.11062 c -2.45e-4,-0.671767 0.201654,-1.331571 0.554231,-1.901781 0.576588,-0.992983 1.266347,-1.954586 2.187594,-2.65587 0.508663,-0.318806 1.05057,-0.706865 1.669895,-0.843847 0.604692,-0.158129 1.254174,0.264986 1.394578,0.864723 0.07395,0.28837 0.09876,0.866159 -0.351655,0.774374 -0.357104,-0.03966 -0.24683,-0.508749 -0.4923,-0.672138 -0.469653,-0.04606 -0.896175,0.235011 -1.27546,0.481023 -0.683968,0.496547 -1.326374,1.069187 -1.832901,1.748689 -0.516448,0.713228 -0.912929,1.594606 -0.778658,2.493176 0.08524,0.325089 0.251916,0.738171 0.637603,0.776867 1.05248,0.09554 2.068425,-0.339615 2.934622,-0.900998 0.187206,-0.131457 0.416983,-0.294056 0.642769,-0.138047 0.267427,0.148925 0.291646,0.528816 0.08406,0.74001 -0.502175,0.565972 -1.242451,0.833951 -1.934767,1.085895 -0.651538,0.203731 -1.345198,0.313756 -2.02658,0.235377 -0.584553,-0.142342 -0.962176,-0.679397 -1.224239,-1.184665 -0.131404,-0.281402 -0.189542,-0.593206 -0.188792,-0.902788 z"
       id="text17"
       style="font-size:11.2889px;font-family:'MV Boli';-inkscape-font-specification:'MV Boli, Normal';fill:#de8787;stroke-width:0.265"
       aria-label="C" /><path
       d="m 58.949689,67.818475 q 0.08268,-0.336241 0.253559,-0.711068 0.176389,-0.380339 0.457509,-0.76619 0.28112,-0.385851 0.672483,-0.755166 0.396876,-0.369314 0.915019,-0.68902 0.08268,-0.04961 0.253559,-0.104731 0.170877,-0.06063 0.352778,-0.07166 0.214974,-0.23151 0.578777,-0.23151 0.429948,0 0.722092,0.220486 0.297657,0.214974 0.490583,0.589801 0.06063,0.121267 0.110243,0.237023 0.05512,0.115755 0.08819,0.248047 0.03858,0.12678 0.06063,0.275608 0.02205,0.148828 0.02205,0.336242 0,0.43546 -0.137804,0.887457 -0.137804,0.451997 -0.391364,0.881945 -0.253559,0.429949 -0.617361,0.826824 -0.358291,0.391363 -0.799263,0.705556 -0.297657,0.214975 -0.661459,0.33073 -0.358291,0.121267 -0.804775,0.121267 -0.424437,0 -0.73863,-0.115755 -0.308681,-0.110243 -0.518143,-0.319705 -0.203949,-0.209462 -0.30868,-0.501607 -0.09922,-0.292144 -0.09922,-0.650434 0,-0.347266 0.09922,-0.744142 z m 0.915018,0.07166 q -0.03307,0.12678 -0.04961,0.242535 -0.01102,0.110244 -0.01102,0.214975 0,0.181901 0.0441,0.341753 0.04961,0.154341 0.154341,0.270096 0.104731,0.110243 0.259071,0.176389 0.159853,0.06063 0.385851,0.06063 0.418924,0 0.777215,-0.209462 0.363802,-0.214974 0.644922,-0.534679 0.28112,-0.319706 0.468534,-0.683508 0.192925,-0.369315 0.270095,-0.677996 0.04961,-0.192925 0.08268,-0.363802 0.03858,-0.170877 0.03858,-0.314193 0,-0.143316 -0.05512,-0.264584 -0.04961,-0.126779 -0.132291,-0.28112 -0.04961,-0.09371 -0.09922,-0.192925 -0.04961,-0.104731 -0.08819,-0.20395 -0.0441,0.07717 -0.09371,0.137804 -0.04961,0.05512 -0.148828,0.104731 -0.09922,0.0441 -0.270096,0.08268 -0.170876,0.03858 -0.446484,0.06615 -0.181902,0.06063 -0.369315,0.187414 -0.187413,0.126779 -0.369315,0.297656 -0.176389,0.170877 -0.341753,0.369315 -0.159853,0.198437 -0.292145,0.407899 -0.126779,0.20395 -0.225998,0.402388 -0.09371,0.198438 -0.132292,0.363802 z"
       id="text16"
       style="font-size:11.2889px;font-family:'MV Boli';-inkscape-font-specification:'MV Boli, Normal';fill:#ffb380;stroke-width:0.265"
       aria-label="o" /><path
       d="m 65.979117,69.09866 c 0.087,-0.798058 0.171089,-1.541548 0.252285,-2.230469 0.0812,-0.688922 0.159492,-1.347149 0.234887,-1.974682 0.0783,-0.634353 0.153693,-1.248243 0.226189,-1.841671 0.0725,-0.593427 0.142092,-1.197086 0.208787,-1.810976 0.02609,-0.238736 0.04059,-0.467239 0.0435,-0.685511 0.0057,-0.225093 0.02028,-0.457007 0.0435,-0.695742 0.0116,-0.08185 0.0319,-0.153478 0.06089,-0.214863 0.08437,0.45556 0.201471,0.269105 0.343631,-0.05978 0.218033,0.306779 0.20704,0.342286 0.330582,-0.02205 0.0348,0.07502 0.05801,0.167109 0.0696,0.27625 0.01449,0.102311 0.02175,0.218268 0.02175,0.347872 0,0.231914 -0.01596,0.467238 -0.04785,0.705973 -0.03189,0.231914 -0.07104,0.487703 -0.117444,0.767362 0.136294,-0.252376 0.275486,-0.491111 0.417578,-0.716205 0.144993,-0.225093 0.292885,-0.422902 0.443676,-0.593427 0.153691,-0.170525 0.310282,-0.306944 0.469774,-0.40926 0.159492,-0.102312 0.324783,-0.153467 0.495874,-0.153467 0.0783,0 0.156592,0.03069 0.234887,0.09208 0.0783,0.05458 0.147892,0.143244 0.208788,0.26602 0.0638,0.122779 0.115994,0.283073 0.156592,0.480879 0.0435,0.19781 0.06814,0.439957 0.07394,0.726438 0.124693,-0.197808 0.253737,-0.395618 0.38713,-0.593428 0.133393,-0.204629 0.268235,-0.385386 0.404527,-0.542269 0.139193,-0.163704 0.276936,-0.293304 0.413227,-0.388798 0.139193,-0.102311 0.274036,-0.153467 0.40453,-0.153467 0.194289,0 0.35378,0.06139 0.478473,0.184169 0.127594,0.115961 0.227639,0.276254 0.300134,0.48088 0.0754,0.197809 0.127593,0.429723 0.156591,0.695743 0.03189,0.266018 0.04784,0.54909 0.04784,0.849215 0,0.327409 -0.01306,0.665049 -0.03915,1.012919 -0.02609,0.347871 -0.0551,0.678689 -0.087,0.992455 -0.0841,0.791237 -0.17834,1.541547 -0.282734,2.250933 -0.104395,0.702563 -0.217489,1.415357 -0.339282,2.138384 -0.02899,0.170525 -0.05945,0.351282 -0.09135,0.54227 -0.03189,0.190989 -0.0696,0.368335 -0.113093,0.53204 -0.0406,0.156881 -0.08989,0.289891 -0.147892,0.399028 -0.05511,0.102312 -0.120344,0.153468 -0.195739,0.153468 -0.17109,0 -0.288534,-0.06821 -0.352331,-0.20463 -0.0638,-0.136419 -0.09569,-0.330818 -0.09569,-0.583196 0,-0.06821 0.0014,-0.146649 0.0044,-0.235325 0.003,-0.08867 0.01013,-0.173938 0.02175,-0.255787 0.0116,-0.102313 0.03769,-0.248965 0.0783,-0.439956 0.04059,-0.197808 0.08409,-0.409259 0.130493,-0.634351 0.0493,-0.225095 0.09714,-0.450188 0.143542,-0.675282 0.0464,-0.231914 0.0812,-0.433132 0.104394,-0.603658 0.03769,-0.293303 0.0812,-0.630943 0.130493,-1.01292 0.0522,-0.388797 0.101495,-0.777594 0.147892,-1.16639 0.0464,-0.395619 0.0841,-0.767363 0.113094,-1.115235 0.0319,-0.354691 0.04784,-0.641174 0.04784,-0.859445 0,-0.102313 -0.0044,-0.204629 -0.01306,-0.306947 -0.0086,-0.102311 -0.02465,-0.190984 -0.04784,-0.266019 -0.02029,-0.07503 -0.05075,-0.136417 -0.09135,-0.184169 -0.03769,-0.04774 -0.087,-0.07161 -0.147891,-0.07161 -0.087,0 -0.19139,0.05798 -0.313183,0.173942 -0.118894,0.115961 -0.243587,0.269433 -0.37408,0.460419 -0.127593,0.184166 -0.252287,0.395617 -0.374079,0.634351 -0.121794,0.231915 -0.226188,0.46383 -0.313184,0.695744 -0.06089,0.163704 -0.11889,0.296713 -0.17399,0.399028 -0.0551,0.102311 -0.110195,0.180754 -0.165291,0.235325 -0.0057,0.02728 -0.02028,0.119368 -0.04349,0.27625 -0.02319,0.150063 -0.05075,0.334231 -0.08264,0.552503 -0.0319,0.21145 -0.06524,0.443364 -0.100045,0.695743 -0.0348,0.245555 -0.06814,0.477469 -0.100044,0.695741 -0.02899,0.211451 -0.05365,0.392207 -0.07394,0.54227 -0.02029,0.143241 -0.03045,0.221682 -0.03045,0.235324 -0.02029,0.190989 -0.03769,0.388799 -0.0522,0.593428 -0.01449,0.197809 -0.02755,0.388797 -0.03915,0.572964 -0.0116,0.184167 -0.0232,0.381977 -0.0348,0.593429 -0.0086,0.204628 -0.02899,0.399027 -0.0609,0.583196 -0.02899,0.177345 -0.0754,0.323997 -0.139192,0.439952 -0.06091,0.115962 -0.147894,0.173942 -0.260986,0.173942 -0.05801,0 -0.111645,-0.0341 -0.160941,-0.102312 -0.0464,-0.06821 -0.087,-0.153471 -0.121794,-0.255787 -0.03479,-0.10913 -0.06235,-0.228499 -0.08264,-0.358104 -0.02029,-0.136419 -0.03189,-0.27284 -0.03479,-0.409259 0.0667,-0.613892 0.131942,-1.166394 0.195739,-1.657505 0.0638,-0.491112 0.127593,-0.961762 0.19139,-1.411949 0.0638,-0.450186 0.124693,-0.900372 0.18269,-1.350559 0.06091,-0.457007 0.120345,-0.958349 0.178339,-1.50403 0.01449,-0.129599 0.02609,-0.255788 0.0348,-0.378567 0.0086,-0.1296 0.01306,-0.242145 0.01306,-0.337639 0,-0.163705 -0.0145,-0.296714 -0.0435,-0.399028 -0.02899,-0.109143 -0.07975,-0.163715 -0.15224,-0.163715 -0.118895,0 -0.237788,0.05798 -0.356682,0.173942 -0.115993,0.10913 -0.242136,0.283066 -0.378429,0.521807 -0.136292,0.238736 -0.288533,0.54227 -0.456725,0.910604 -0.165291,0.368334 -0.356681,0.80829 -0.574169,1.319864 -0.02319,0.102313 -0.05365,0.293301 -0.09135,0.572964 -0.03769,0.279661 -0.07685,0.576375 -0.117443,0.89014 -0.03769,0.313767 -0.0725,0.607071 -0.104395,0.879912 -0.03189,0.266019 -0.05219,0.443364 -0.06089,0.532038 -0.0319,0.286482 -0.05364,0.528628 -0.06524,0.726436 -0.0116,0.190989 -0.02176,0.364925 -0.03045,0.521806 -0.0057,0.08186 -0.01448,0.218279 -0.02609,0.409263 -0.0116,0.184166 -0.03335,0.371743 -0.06524,0.562731 -0.02899,0.190988 -0.07104,0.358103 -0.126142,0.501345 -0.0551,0.150062 -0.127594,0.225093 -0.217488,0.225093 -0.133393,0 -0.243587,-0.08527 -0.330582,-0.255788 -0.0841,-0.170525 -0.126143,-0.385387 -0.126143,-0.644585 0,-0.04774 0.0014,-0.09207 0.0044,-0.133012 0.003,-0.04092 0.0072,-0.08526 0.01305,-0.133013 z"
       id="text15"
       style="font-size:11.2889px;font-family:'MV Boli';-inkscape-font-specification:'MV Boli, Normal';stroke-width:0.320721"
       aria-label="m" /><path
       d="m 18.725914,72.145474 c 0.09238,-0.847429 0.181674,-1.636914 0.267893,-2.368455 0.08622,-0.731541 0.169358,-1.430489 0.249418,-2.096844 0.08314,-0.673596 0.163201,-1.325464 0.240182,-1.955604 0.07698,-0.630139 0.150882,-1.271143 0.221704,-1.923011 0.02771,-0.253505 0.04311,-0.496145 0.04619,-0.72792 0.0061,-0.239018 0.02153,-0.485279 0.04619,-0.738783 0.01232,-0.08692 0.03387,-0.162973 0.06466,-0.228155 0.08959,0.483742 0.213935,0.285753 0.364889,-0.06348 0.231522,0.325758 0.219849,0.363462 0.351033,-0.02342 0.03695,0.07967 0.06159,0.177447 0.0739,0.29334 0.01539,0.108641 0.02309,0.231772 0.02309,0.369393 0,0.246261 -0.01694,0.496143 -0.05081,0.749648 -0.03387,0.246261 -0.07544,0.517873 -0.124709,0.814834 0.144725,-0.267989 0.292528,-0.521494 0.443411,-0.760513 0.153962,-0.239018 0.311003,-0.449064 0.471123,-0.630139 0.163199,-0.181074 0.329478,-0.325933 0.498837,-0.434578 0.169358,-0.108641 0.344875,-0.162962 0.52655,-0.162962 0.08314,0 0.166279,0.03259 0.249418,0.09778 0.08314,0.05795 0.157041,0.152105 0.221705,0.282476 0.06774,0.130375 0.12317,0.300585 0.166279,0.510629 0.04619,0.210047 0.07236,0.467174 0.07852,0.771379 0.132407,-0.210047 0.269434,-0.420094 0.411079,-0.630141 0.141645,-0.217288 0.284829,-0.409227 0.429553,-0.575816 0.147804,-0.173831 0.294068,-0.311448 0.438791,-0.41285 0.147804,-0.108641 0.290989,-0.162962 0.429555,-0.162962 0.206309,0 0.375667,0.06519 0.508074,0.195563 0.135487,0.123135 0.241721,0.293344 0.318702,0.510629 0.08006,0.210047 0.135486,0.456308 0.166278,0.738784 0.03387,0.282476 0.0508,0.58306 0.0508,0.901751 0,0.347664 -0.01386,0.706192 -0.04157,1.075583 -0.02771,0.369392 -0.05851,0.720676 -0.09238,1.053853 -0.0893,0.840185 -0.189372,1.636913 -0.300225,2.390184 -0.110853,0.746027 -0.230943,1.502918 -0.360271,2.270674 -0.03079,0.181075 -0.06313,0.373014 -0.097,0.575817 -0.03387,0.202804 -0.0739,0.391122 -0.12009,0.564954 -0.04311,0.166587 -0.09545,0.307825 -0.157041,0.423714 -0.05851,0.108641 -0.127789,0.162962 -0.207848,0.162962 -0.181675,0 -0.306385,-0.07243 -0.374128,-0.217289 -0.06774,-0.144859 -0.101615,-0.351284 -0.101615,-0.619275 0,-0.07243 0.0015,-0.155722 0.0046,-0.249883 0.0031,-0.09416 0.01076,-0.184699 0.02309,-0.271612 0.01232,-0.108642 0.04003,-0.264366 0.08314,-0.467173 0.04311,-0.210045 0.08929,-0.434577 0.138566,-0.673595 0.05235,-0.23902 0.103154,-0.478039 0.152422,-0.717057 0.04927,-0.246261 0.08622,-0.459928 0.110852,-0.641003 0.04003,-0.311448 0.08622,-0.669976 0.138566,-1.075583 0.05543,-0.41285 0.107774,-0.8257 0.157041,-1.238549 0.04927,-0.420093 0.0893,-0.814835 0.120091,-1.184227 0.03387,-0.376635 0.0508,-0.68084 0.0508,-0.912615 0,-0.108642 -0.0046,-0.217287 -0.01386,-0.325935 -0.0092,-0.108641 -0.02617,-0.2028 -0.0508,-0.282476 -0.02155,-0.07967 -0.05389,-0.144856 -0.097,-0.195563 -0.04003,-0.05069 -0.09238,-0.07604 -0.15704,-0.07604 -0.09238,0 -0.20323,0.06157 -0.332558,0.184703 -0.126249,0.123135 -0.258657,0.286102 -0.397222,0.488903 -0.135487,0.19556 -0.267894,0.420092 -0.397222,0.673595 -0.129328,0.246262 -0.240181,0.492524 -0.332558,0.738785 -0.06466,0.173831 -0.126245,0.315069 -0.184754,0.423714 -0.05851,0.108641 -0.117012,0.191936 -0.175516,0.249883 -0.0061,0.02897 -0.02153,0.126753 -0.04619,0.29334 -0.02463,0.159347 -0.05389,0.354908 -0.08776,0.586683 -0.03387,0.224532 -0.06928,0.470793 -0.106234,0.738784 -0.03695,0.260747 -0.07236,0.507008 -0.106233,0.738783 -0.03079,0.224532 -0.05697,0.416471 -0.07852,0.575818 -0.02155,0.152102 -0.03233,0.235396 -0.03233,0.249881 -0.02155,0.202805 -0.04003,0.412852 -0.05543,0.630141 -0.01539,0.210046 -0.02925,0.412849 -0.04157,0.608409 -0.01232,0.195561 -0.02464,0.405608 -0.03695,0.630141 -0.0092,0.217288 -0.03079,0.423713 -0.06466,0.619275 -0.03079,0.188317 -0.08006,0.344041 -0.147803,0.46717 -0.06467,0.123135 -0.157044,0.184703 -0.277132,0.184703 -0.06159,0 -0.118552,-0.03621 -0.170897,-0.108642 -0.04927,-0.07243 -0.09238,-0.162965 -0.129329,-0.271612 -0.03695,-0.115881 -0.06621,-0.242634 -0.08776,-0.380257 -0.02155,-0.144859 -0.03387,-0.289719 -0.03695,-0.434578 0.07082,-0.651869 0.140105,-1.238551 0.207848,-1.760045 0.06774,-0.521494 0.135487,-1.02126 0.20323,-1.499297 0.06774,-0.478037 0.132407,-0.956074 0.193992,-1.434111 0.06467,-0.485279 0.127791,-1.017637 0.189373,-1.597076 0.01539,-0.137617 0.02771,-0.271612 0.03695,-0.401986 0.0092,-0.137617 0.01386,-0.257126 0.01386,-0.358527 0,-0.173832 -0.0154,-0.31507 -0.04619,-0.423714 -0.03079,-0.115895 -0.08468,-0.173842 -0.161659,-0.173842 -0.126249,0 -0.252498,0.06157 -0.378747,0.184702 -0.123169,0.115882 -0.257116,0.300578 -0.40184,0.554088 -0.144724,0.253505 -0.306384,0.575817 -0.48498,0.966938 -0.175517,0.391121 -0.378747,0.858294 -0.609689,1.401517 -0.02463,0.108642 -0.05697,0.311445 -0.097,0.608409 -0.04003,0.296963 -0.0816,0.612032 -0.124709,0.945209 -0.04003,0.333177 -0.07698,0.644626 -0.110853,0.934346 -0.03387,0.282476 -0.05542,0.470793 -0.06466,0.564952 -0.03387,0.304205 -0.05696,0.561331 -0.06928,0.771377 -0.01232,0.202804 -0.0231,0.3875 -0.03233,0.554087 -0.0061,0.08692 -0.01537,0.231782 -0.02771,0.434581 -0.01232,0.19556 -0.03541,0.394741 -0.06928,0.597544 -0.03079,0.202804 -0.07544,0.380257 -0.133946,0.53236 -0.05851,0.159346 -0.135488,0.239019 -0.230943,0.239019 -0.141645,0 -0.258656,-0.09054 -0.351033,-0.271612 -0.0893,-0.181075 -0.133947,-0.409229 -0.133947,-0.684462 0,-0.05069 0.0015,-0.09777 0.0046,-0.141241 0.0031,-0.04345 0.0077,-0.09053 0.01386,-0.141242 z"
       id="text15-9"
       style="font-size:11.2889px;font-family:'MV Boli';-inkscape-font-specification:'MV Boli, Normal';fill:#008000;stroke-width:0.340562"
       aria-label="m" /><path
       d="m 75.45235,68.503514 c 0.09238,-0.847429 0.181675,-1.636914 0.267894,-2.368455 0.08622,-0.731541 0.169358,-1.430489 0.249418,-2.096844 0.08314,-0.673596 0.1632,-1.325464 0.240181,-1.955604 0.07698,-0.630139 0.150882,-1.271143 0.221705,-1.923011 0.09442,-0.514307 0.22572,-1.097746 0.919143,-0.369378 -0.03387,0.246261 -0.07544,0.517873 -0.124709,0.814834 0.144724,-0.267989 0.292528,-0.521494 0.443411,-0.760513 0.153962,-0.239018 0.311003,-0.449064 0.471123,-0.630139 0.0056,-0.0066 1.281544,-0.498299 1.662789,0.293345 0.04619,0.210047 0.07236,0.467174 0.07852,0.771379 0.132407,-0.210047 0.269434,-0.420094 0.411079,-0.630141 0.251723,-0.559351 2.792963,-0.778489 2.290954,0.293348 0.03387,0.282476 0.0508,0.58306 0.0508,0.901751 0,0.347664 -0.01386,0.706192 -0.04157,1.075583 -0.02771,0.369392 -0.05851,0.720676 -0.09238,1.053853 -0.0893,0.840185 -0.189374,1.636913 -0.300227,2.390184 -0.110852,0.746027 -0.230942,1.502918 -0.36027,2.270674 -0.03079,0.181075 -0.06313,0.373014 -0.097,0.575817 -0.03387,0.202804 -0.0739,0.391122 -0.12009,0.564954 -0.04311,0.166587 -0.09545,0.307825 -0.157042,0.423714 -0.05851,0.108641 -0.127789,0.162962 -0.207848,0.162962 -0.181675,0 -0.306385,-0.07243 -0.374128,-0.217289 -0.06774,-0.144859 -0.101615,-0.351284 -0.101615,-0.619275 0,-0.07243 0.0015,-0.155722 0.0046,-0.249883 0.0031,-0.09416 0.01076,-0.184699 0.02309,-0.271612 0.01232,-0.108642 0.04003,-0.264366 0.08314,-0.467173 0.04311,-0.210045 0.08929,-0.434577 0.138565,-0.673595 0.05235,-0.23902 0.103154,-0.478039 0.152423,-0.717057 0.04927,-0.246261 0.08622,-0.459928 0.110852,-0.641003 0.04003,-0.311448 0.08622,-0.669976 0.138566,-1.075583 0.05543,-0.41285 0.107774,-0.8257 0.157042,-1.238549 0.04927,-0.420093 0.0893,-0.814835 0.12009,-1.184227 0.03387,-0.376635 0.0508,-0.68084 0.0508,-0.912615 0,-0.108642 -0.0046,-0.217287 -0.01386,-0.325935 -0.0092,-0.108641 -0.02617,-0.2028 -0.0508,-0.282476 -0.02155,-0.07967 -0.05388,-0.144856 -0.09699,-0.195563 -0.04003,-0.05069 -0.09238,-0.07604 -0.157042,-0.07604 -0.09238,0 -0.203229,0.06157 -0.332557,0.184703 -0.126249,0.123135 -0.258656,0.286102 -0.397223,0.488903 -0.135486,0.19556 -0.267893,0.420092 -0.397221,0.673595 -0.129328,0.246262 -0.240181,0.492524 -0.332558,0.738785 -0.06467,0.173831 -0.126251,0.315069 -0.184754,0.423714 -0.05851,0.108641 -0.117012,0.191936 -0.175517,0.249883 -0.0061,0.02897 -0.02153,0.126753 -0.04619,0.29334 -0.02463,0.159347 -0.05389,0.354908 -0.08776,0.586683 -0.03387,0.224532 -0.06928,0.470793 -0.106234,0.738784 -0.03695,0.260747 -0.07237,0.507008 -0.106234,0.738783 -0.03079,0.224532 -0.05697,0.416471 -0.07852,0.575818 -0.02155,0.152102 -0.03233,0.235396 -0.03233,0.249881 -0.02155,0.202805 -0.04003,0.412852 -0.05543,0.630141 -0.01539,0.210046 -0.02925,0.412849 -0.04157,0.608409 -0.01232,0.195561 -0.02464,0.405608 -0.03695,0.630141 -0.0092,0.217288 -0.03079,0.423713 -0.06466,0.619275 -0.03079,0.188317 -0.08006,0.344041 -0.147804,0.46717 -0.06467,0.123135 -0.157044,0.184703 -0.277131,0.184703 -0.06159,0 -0.118553,-0.03621 -0.170898,-0.108642 -0.04927,-0.07243 -0.09238,-0.162965 -0.129327,-0.271612 -0.03695,-0.115881 -0.06621,-0.242634 -0.08776,-0.380257 -0.02155,-0.144859 -0.03387,-0.289719 -0.03695,-0.434578 0.07082,-0.651869 0.140106,-1.238551 0.207849,-1.760045 0.06774,-0.521494 0.135486,-1.02126 0.203229,-1.499297 0.06774,-0.478037 0.132408,-0.956074 0.193993,-1.434111 0.06467,-0.485279 0.127791,-1.017637 0.189373,-1.597076 0.01539,-0.137617 0.02771,-0.271612 0.03695,-0.401986 0.0092,-0.137617 0.01386,-0.257126 0.01386,-0.358527 0,-0.173832 -0.0154,-0.31507 -0.04619,-0.423714 -0.03079,-0.115895 -0.08468,-0.173842 -0.161661,-0.173842 -0.126248,0 -0.252497,0.06157 -0.378746,0.184702 -0.123169,0.115882 -0.257116,0.300578 -0.401841,0.554088 -0.144724,0.253505 -0.306384,0.575817 -0.484979,0.966938 -0.175517,0.391121 -0.378747,0.858294 -0.60969,1.401517 -0.02463,0.108642 -0.05697,0.311445 -0.097,0.608409 -0.04003,0.296963 -0.0816,0.612032 -0.124709,0.945209 -0.04003,0.333177 -0.07698,0.644626 -0.110852,0.934346 -0.03387,0.282476 -0.05542,0.470793 -0.06466,0.564952 -0.03387,0.304205 -0.05696,0.561331 -0.06928,0.771377 -0.01232,0.202804 -0.0231,0.3875 -0.03233,0.554087 -0.0061,0.08692 -0.01537,0.231782 -0.02771,0.434581 -0.01232,0.19556 -0.03541,0.394741 -0.06928,0.597544 -0.03079,0.202804 -0.07544,0.380257 -0.133947,0.53236 -0.05851,0.159346 -0.135488,0.239019 -0.230943,0.239019 -0.141645,0 -0.258657,-0.09054 -0.351034,-0.271612 -0.0893,-0.181075 -0.133947,-0.409229 -0.133947,-0.684462 0,-0.05069 0.0015,-0.09777 0.0046,-0.141241 0.0031,-0.04345 0.0077,-0.09053 0.01386,-0.141242 z"
       id="text14"
       style="font-size:11.2889px;font-family:'MV Boli';-inkscape-font-specification:'MV Boli, Normal';stroke-width:0.340562"
       aria-label="m" /><path
       d="m 85.215125,65.023811 q 0.02205,-0.08819 0.06063,-0.148828 0.0441,-0.06615 0.08819,-0.104731 0.04961,-0.03858 0.08819,-0.05512 0.03858,-0.01654 0.06063,-0.01654 0.06063,0 0.143316,0.01654 0.08268,0.01103 0.159852,0.02205 0.08819,0.01654 0.170877,0.03307 0.143316,0.0055 0.20395,0.115755 0.06615,0.110243 0.06615,0.264584 0,0.121267 -0.03307,0.225998 -0.187413,0.68902 -0.341754,1.201651 -0.15434,0.507118 -0.264583,0.865409 -0.104731,0.35829 -0.165365,0.584288 -0.05512,0.225999 -0.05512,0.341754 0,0.115756 0.02756,0.259072 0.03307,0.143316 0.09371,0.270095 0.06063,0.121268 0.15434,0.20395 0.09371,0.08268 0.225999,0.08268 0.23151,0 0.468533,-0.143316 0.237023,-0.143317 0.451997,-0.347266 0.214974,-0.209462 0.385851,-0.440973 0.176389,-0.237023 0.286633,-0.418924 l 0.143316,-0.248047 q 0.132291,-0.231511 0.242535,-0.529167 0.115755,-0.303169 0.198437,-0.606338 0.08819,-0.303169 0.148829,-0.567752 0.06063,-0.270096 0.09371,-0.429949 l 0.143316,-0.733117 q 0.0441,-0.209462 0.132292,-0.286632 0.09371,-0.08268 0.308681,-0.08268 0.137804,0 0.248047,0.03307 0.110243,0.02756 0.187414,0.104731 0.07717,0.07717 0.115755,0.209462 0.03859,0.126779 0.03859,0.330729 0,0.237023 -0.07717,0.584289 -0.07166,0.341754 -0.159853,0.68902 -0.04961,0.20395 -0.104731,0.43546 -0.04961,0.225999 -0.09371,0.457509 -0.03859,0.225999 -0.06615,0.435461 -0.02205,0.20395 -0.02205,0.369315 0,0.28112 0.01654,0.56224 0.02205,0.28112 0.02205,0.595313 0,0.143316 -0.01102,0.253559 -0.0055,0.110243 -0.02205,0.165365 -0.06063,0.214974 -0.159852,0.319705 -0.09371,0.104731 -0.325218,0.104731 -0.159852,0 -0.253559,-0.03858 -0.09371,-0.03307 -0.148828,-0.09371 -0.04961,-0.06063 -0.06615,-0.132292 -0.01654,-0.07717 -0.02205,-0.15434 l -0.06063,-1.041798 -0.04961,0.01654 q -0.181901,0.23151 -0.396875,0.518142 -0.214975,0.286633 -0.474046,0.53468 -0.259072,0.248047 -0.567752,0.413412 -0.303169,0.170877 -0.661459,0.170877 -0.07166,0 -0.187414,-0.03858 -0.110243,-0.03307 -0.23151,-0.08819 -0.121268,-0.05512 -0.231511,-0.12678 -0.110243,-0.06615 -0.176389,-0.126779 -0.303169,-0.28112 -0.429949,-0.633899 -0.126779,-0.352778 -0.126779,-0.71658 0,-0.20395 0.03307,-0.4079 0.03307,-0.20395 0.07717,-0.391363 0.0441,-0.192926 0.09371,-0.35829 0.05512,-0.170877 0.08819,-0.303169 0.104731,-0.413412 0.187414,-0.727605 0.08268,-0.314193 0.143316,-0.551216 0.06615,-0.237023 0.110243,-0.402387 0.0441,-0.170877 0.07717,-0.297657 z"
       id="text13"
       style="font-size:11.2889px;font-family:'MV Boli';-inkscape-font-specification:'MV Boli, Normal';fill:#d38d5f;stroke-width:0.265"
       aria-label="u" /><path
       d="m 93.896777,65.40415 q -0.192926,0 -0.413412,0.09371 -0.220487,0.08819 -0.457509,0.242535 -0.237023,0.15434 -0.48507,0.352778 -0.242535,0.192925 -0.479558,0.402387 -0.121268,0.104731 -0.231511,0.192926 -0.110243,0.08268 -0.220486,0.12678 -0.07717,0.126779 -0.165365,0.336241 -0.08268,0.20395 -0.165365,0.451997 -0.08268,0.242535 -0.159852,0.501607 -0.07166,0.253559 -0.121268,0.474045 -0.02756,0.115756 -0.0441,0.225999 -0.01654,0.110243 -0.03858,0.237023 -0.02205,0.121267 -0.05512,0.264583 -0.02756,0.143316 -0.07166,0.319705 -0.02756,0.104731 -0.08819,0.170877 -0.06063,0.06063 -0.12678,0.09371 -0.06615,0.03307 -0.126779,0.03858 -0.06063,0.01102 -0.09371,0.01102 -0.209462,0 -0.341754,-0.09922 -0.132292,-0.09922 -0.132292,-0.385851 0,-0.07717 0.0055,-0.159852 0.0055,-0.0882 0.03307,-0.192926 0.121268,-0.523655 0.231511,-0.942579 0.115755,-0.418924 0.231511,-0.777214 0.115755,-0.35829 0.23151,-0.672483 0.121268,-0.319706 0.242535,-0.639411 0.12678,-0.325217 0.259072,-0.666971 0.137804,-0.347266 0.292144,-0.76619 0.03307,-0.09371 0.170877,-0.15434 0.143316,-0.06615 0.303169,-0.06615 0.209462,0 0.341754,0.09371 0.137804,0.09371 0.137804,0.270096 0,0.01654 -0.01102,0.06063 -0.01102,0.0441 -0.03307,0.09371 l -0.242535,0.573264 q 0.231511,-0.181901 0.479558,-0.363802 0.253559,-0.181902 0.518143,-0.325218 0.264584,-0.148828 0.529167,-0.237023 0.270096,-0.09371 0.529167,-0.09371 0.529168,0 0.826824,0.286632 0.297657,0.28112 0.297657,0.876433 0,0.341754 -0.121268,0.777214 -0.115755,0.435461 -0.297656,0.937067 -0.176389,0.496095 -0.385851,1.04731 -0.20395,0.545704 -0.380339,1.113456 -0.04961,0.154341 -0.104731,0.259072 -0.04961,0.104731 -0.121268,0.165365 -0.07166,0.06615 -0.170877,0.09371 -0.09371,0.02756 -0.23151,0.02756 -0.214975,0 -0.297657,-0.08268 -0.08268,-0.07717 -0.08268,-0.25356 0,-0.15434 0.0441,-0.374826 0.04961,-0.225999 0.132292,-0.490582 0.08819,-0.270096 0.198437,-0.573265 0.115756,-0.303169 0.248048,-0.617362 0.104731,-0.253559 0.203949,-0.507118 0.104731,-0.253559 0.181902,-0.490582 0.08268,-0.237023 0.132291,-0.451997 0.04961,-0.214974 0.04961,-0.396876 0,-0.170877 -0.07717,-0.297656 -0.07166,-0.132292 -0.275608,-0.132292 z"
       id="text12"
       style="font-size:11.2889px;font-family:'MV Boli';-inkscape-font-specification:'MV Boli, Normal';fill:#008080;stroke-width:0.265"
       aria-label="n" /><path
       d="m 96.206373,68.920907 q 0.08268,-0.319705 0.198438,-0.744141 0.115755,-0.424437 0.242535,-0.898482 0.132291,-0.474046 0.264583,-0.97014 0.132292,-0.496094 0.248047,-0.964628 0.0055,-0.02205 0.03859,-0.07166 0.03307,-0.05512 0.09371,-0.104731 0.06063,-0.05512 0.154341,-0.09371 0.09371,-0.03858 0.220486,-0.03858 0.09371,0 0.181901,0.02205 0.0882,0.01654 0.154341,0.05512 0.07166,0.03858 0.110243,0.104731 0.0441,0.06063 0.0441,0.143316 0,0.01654 0,0.03858 0,0.01654 -0.0055,0.03307 l -0.154341,0.584289 q -0.259071,0.981164 -0.529167,1.96784 -0.264583,0.986676 -0.518143,1.978865 -0.01102,0.03307 -0.03307,0.08268 -0.02205,0.04961 -0.06063,0.09922 -0.03859,0.04961 -0.09371,0.08268 -0.05512,0.03307 -0.132292,0.03307 -0.143316,0 -0.253559,-0.06063 -0.110243,-0.05512 -0.187414,-0.143316 -0.07717,-0.08819 -0.115755,-0.192926 -0.03858,-0.104731 -0.03858,-0.198438 0,-0.02756 0,-0.04961 0,-0.02205 0.01102,-0.04961 z m 1.438673,-5.705084 q 0.02756,-0.115755 0.09922,-0.28112 0.07166,-0.165365 0.253559,-0.297657 0.08819,-0.04961 0.214975,-0.08819 0.126779,-0.0441 0.181901,-0.0441 0.05512,0 0.110243,0.03858 0.06063,0.03858 0.104731,0.08268 0.05512,0.05512 0.104731,0.121268 0.137802,0.01102 0.176392,0.09922 0.0441,0.08819 0.0441,0.209462 0,0.08819 -0.0165,0.159852 -0.0165,0.07166 -0.0276,0.115755 -0.0331,0.115756 -0.126783,0.214975 -0.09371,0.09371 -0.214974,0.165364 -0.121267,0.06615 -0.253559,0.104731 -0.132292,0.03858 -0.231511,0.03858 -0.126779,0 -0.198437,-0.0441 -0.06615,-0.0441 -0.170877,-0.187413 -0.06063,-0.08268 -0.07166,-0.12678 -0.0055,-0.04961 -0.0055,-0.08268 0,-0.06063 0.0055,-0.104731 0.01102,-0.04961 0.02205,-0.09371 z"
       id="text11"
       style="font-size:11.2889px;font-family:'MV Boli';-inkscape-font-specification:'MV Boli, Normal';fill:#916f6f;stroke-width:0.265"
       aria-label="i" /><path
       d="m 99.860927,68.215351 q 0,-0.463022 0.10473,-0.959116 0.104733,-0.501606 0.220493,-0.959115 -0.14332,-0.0055 -0.292143,-0.0441 -0.14883,-0.03858 -0.2701,-0.104731 -0.12127,-0.06615 -0.19844,-0.159852 -0.0772,-0.09922 -0.0772,-0.225999 0,-0.04961 0.0221,-0.126779 0.022,-0.07717 0.0606,-0.148829 0.0441,-0.07717 0.11025,-0.126779 0.0661,-0.05512 0.14883,-0.05512 h 0.738623 q 0.10474,0 0.14332,-0.08819 0.0386,-0.09371 0.0606,-0.181902 0.0717,-0.319705 0.1323,-0.551215 0.0661,-0.237023 0.11024,-0.396876 0.0441,-0.165365 0.0662,-0.264583 0.0276,-0.104731 0.0276,-0.165365 0,-0.07166 -0.006,-0.137804 -0.006,-0.06615 -0.006,-0.181901 v -0.05512 q 0,-0.0441 0.006,-0.115755 0.011,-0.07166 0.0551,-0.20395 0.0331,-0.104731 0.12126,-0.198438 0.0882,-0.09371 0.25907,-0.09371 0.14883,0 0.25356,0.06063 0.10473,0.06063 0.17088,0.159853 0.0661,0.09922 0.0992,0.225998 0.0331,0.12678 0.0331,0.25356 0,0.137804 -0.0276,0.248047 l -0.40239,1.543404 q 0.29766,-0.04961 0.52917,-0.09371 0.23151,-0.0441 0.46302,-0.08819 0.25356,-0.04961 0.43546,-0.09371 0.18742,-0.0441 0.31971,-0.07166 0.13229,-0.03307 0.22048,-0.04961 0.0937,-0.02205 0.15434,-0.02205 0.0882,0 0.17639,0.01654 0.0937,0.01102 0.15986,0.0441 0.0716,0.03307 0.11575,0.09371 0.0441,0.06063 0.0441,0.159853 0,0.132292 -0.0551,0.237023 -0.0496,0.09922 -0.13229,0.176389 -0.0827,0.07166 -0.18742,0.121267 -0.10473,0.0441 -0.20946,0.06615 -0.0882,0.01654 -0.23151,0.04961 -0.1378,0.03307 -0.30868,0.07166 -0.16537,0.03859 -0.34727,0.08268 -0.1819,0.0441 -0.35278,0.08819 -0.25355,0.06615 -0.43546,0.110243 -0.17638,0.0441 -0.30316,0.06615 -0.12678,0.02205 -0.20947,0.03307 -0.0772,0.01102 -0.12678,0.01102 -0.10473,0.314193 -0.1819,0.617362 -0.0772,0.303168 -0.13229,0.567752 -0.0496,0.259072 -0.0772,0.468534 -0.0221,0.203949 -0.0221,0.319705 0,0.148828 0.0276,0.286632 0.0276,0.132292 0.0937,0.231511 0.0662,0.09922 0.17639,0.159852 0.11575,0.05512 0.28663,0.05512 0.29215,0 0.57327,-0.159853 0.28112,-0.159852 0.53467,-0.402387 0.25908,-0.248048 0.48507,-0.540192 0.23152,-0.292144 0.42444,-0.556728 0.0661,-0.09922 0.17088,-0.09922 0.0331,0 0.0772,0.01103 0.0496,0.01102 0.0937,0.03858 0.0441,0.02756 0.0717,0.07166 0.0331,0.0441 0.0331,0.104731 0,0.0441 -0.006,0.06615 -0.0882,0.341753 -0.2756,0.689019 -0.18191,0.341754 -0.37483,0.68902 -0.0661,0.121268 -0.17639,0.237023 -0.10473,0.115755 -0.23151,0.225999 -0.12678,0.104731 -0.26458,0.203949 -0.13781,0.09371 -0.25908,0.170877 -0.20946,0.132292 -0.45751,0.181902 -0.24804,0.04961 -0.47955,0.04961 -0.35829,0 -0.63941,-0.12678 -0.27561,-0.132291 -0.46854,-0.352778 -0.18741,-0.225998 -0.286633,-0.523655 -0.0992,-0.297656 -0.0992,-0.63941 z"
       id="text10"
       style="font-size:11.2889px;font-family:'MV Boli';-inkscape-font-specification:'MV Boli, Normal';fill:#00ff00;stroke-width:0.265"
       aria-label="t" /><path
       d="m 104.99827,72.476249 q -0.0827,0 -0.14883,-0.0441 -0.0661,-0.0441 -0.11575,-0.115755 -0.0441,-0.07166 -0.0717,-0.159853 -0.0276,-0.08268 -0.0276,-0.165365 0,-0.104731 0.0276,-0.181901 0.0276,-0.07717 0.0661,-0.137804 0.0441,-0.05512 0.0882,-0.08819 0.0496,-0.03307 0.0882,-0.04961 0.13229,-0.03307 0.30868,-0.07166 0.17639,-0.03858 0.38034,-0.115755 0.20946,-0.07166 0.44097,-0.192926 0.23703,-0.115755 0.48507,-0.308681 0.24805,-0.192925 0.51815,-0.451997 0.27561,-0.253559 0.52917,-0.595313 0.25355,-0.347266 0.47404,-0.788238 0.22049,-0.446485 0.3638,-1.01975 -0.10473,0.115756 -0.24253,0.264584 -0.13229,0.143316 -0.28663,0.297656 -0.15434,0.148829 -0.31971,0.292145 -0.16536,0.137804 -0.33073,0.253559 -0.16536,0.110243 -0.32522,0.176389 -0.15434,0.06615 -0.29214,0.06615 -0.36932,0 -0.62839,-0.165365 -0.25907,-0.170877 -0.47955,-0.556728 -0.0606,-0.110243 -0.0937,-0.286632 -0.0331,-0.176389 -0.0331,-0.35829 0,-0.297657 0.0276,-0.578777 0.0276,-0.28112 0.0827,-0.584289 0.0551,-0.303168 0.12678,-0.633898 0.0772,-0.336241 0.17088,-0.738629 0.006,-0.104731 0.0165,-0.198438 0.011,-0.07717 0.011,-0.148828 0.006,-0.07166 0.011,-0.08819 0.011,-0.09371 0.0606,-0.176389 0.0551,-0.08268 0.12678,-0.143316 0.0772,-0.06063 0.15986,-0.09371 0.0882,-0.03307 0.17087,-0.03307 0.11576,0 0.23151,0.02205 0.11576,0.01654 0.18191,0.08268 0.0937,0.09922 0.1378,0.259071 0.0496,0.159853 0.0496,0.286632 0,0.04961 -0.0496,0.198438 -0.0441,0.148828 -0.13229,0.308681 -0.13229,0.496094 -0.21498,0.84336 -0.0827,0.341754 -0.13229,0.573265 -0.0441,0.225998 -0.0661,0.363802 -0.0165,0.132292 -0.0165,0.20395 0,0.297656 0.0992,0.474046 0.0992,0.176389 0.24253,0.176389 0.0827,0 0.18742,-0.03307 0.11024,-0.03307 0.23151,-0.110244 0.46302,-0.286632 0.79375,-0.622873 0.33624,-0.341754 0.57326,-0.749654 0.24254,-0.413412 0.41341,-0.903994 0.17639,-0.490582 0.31971,-1.080383 0.011,-0.03859 0.0496,-0.07717 0.0441,-0.03858 0.0992,-0.06615 0.0606,-0.02756 0.12678,-0.0441 0.0661,-0.02205 0.12678,-0.02205 0.29214,0 0.44648,0.159853 0.15985,0.15434 0.15985,0.418924 0,0.09922 -0.0496,0.319705 -0.0496,0.220486 -0.11576,0.468533 -0.0661,0.242535 -0.1378,0.468534 -0.0661,0.220486 -0.10474,0.325217 l -0.26458,0.76619 q -0.1819,0.518143 -0.33073,0.953603 -0.14331,0.435461 -0.30868,0.8158 -0.16536,0.374827 -0.37483,0.711068 -0.20395,0.336242 -0.49609,0.655947 -0.29214,0.319705 -0.69453,0.639411 -0.40239,0.325217 -0.95912,0.672483 -0.34175,0.20395 -0.67248,0.330729 -0.32522,0.132292 -0.68902,0.132292 z"
       id="text9"
       style="font-size:11.2889px;font-family:'MV Boli';-inkscape-font-specification:'MV Boli, Normal';fill:#ff8080;stroke-width:0.265"
       aria-label="y" /><path
       d="m 120.11911,68.162977 q -0.0661,0.01654 -0.23702,0.07166 -0.17088,0.05512 -0.38585,0.132292 -0.21497,0.07166 -0.45751,0.159852 -0.23702,0.08268 -0.452,0.159853 -0.21497,0.07166 -0.37482,0.126779 -0.15986,0.05512 -0.21498,0.07166 -0.0386,0.0055 -0.0992,0.03307 -0.0606,0.02756 -0.12678,0.05512 -0.0606,0.02756 -0.12126,0.05512 -0.0551,0.02205 -0.0882,0.02205 -0.11575,0 -0.20946,-0.0441 -0.0882,-0.04961 -0.15434,-0.12678 -0.0661,-0.07717 -0.0992,-0.181901 -0.0331,-0.104731 -0.0331,-0.214974 0,-0.225999 0.12678,-0.35829 0.12678,-0.132292 0.29765,-0.198438 0.17639,-0.07166 0.36381,-0.09371 0.18741,-0.02205 0.30868,-0.03858 0.0165,0 0.0661,-0.01654 0.0496,-0.01654 0.11025,-0.03858 0.0606,-0.02205 0.12126,-0.03859 0.0606,-0.01654 0.0992,-0.01654 0.0992,-0.0441 0.30868,-0.132292 0.20947,-0.08819 0.45751,-0.176389 0.24805,-0.09371 0.49058,-0.159853 0.24805,-0.07166 0.42444,-0.07166 0.19844,0 0.35278,0.06615 0.15434,0.06063 0.26458,0.176389 0.11025,0.110244 0.16537,0.264584 0.0606,0.148828 0.0606,0.33073 0,0.07717 -0.011,0.159852 -0.011,0.07717 -0.0386,0.192926 -0.16536,0.617361 -0.50712,1.152041 -0.33624,0.529167 -0.79375,0.964627 -0.45751,0.429949 -1.00872,0.760678 -0.55122,0.33073 -1.13551,0.545704 l 0.006,-0.0055 q -0.0937,0.03858 -0.23151,0.08268 -0.13229,0.03858 -0.28112,0.07717 -0.14331,0.03307 -0.28663,0.05512 -0.1378,0.02205 -0.24253,0.02205 -0.21498,0 -0.36381,-0.01103 -0.14882,-0.01654 -0.25355,-0.03307 -0.0992,-0.02205 -0.17088,-0.04961 -0.0661,-0.02756 -0.12127,-0.05512 -0.31419,-0.143316 -0.57878,-0.341753 -0.25907,-0.20395 -0.44648,-0.468534 -0.18741,-0.264584 -0.29215,-0.584289 -0.10473,-0.325217 -0.10473,-0.705556 0,-0.4079 0.1323,-0.848872 0.13229,-0.446485 0.3638,-0.898482 0.23151,-0.451997 0.54019,-0.89297 0.31419,-0.440973 0.678,-0.84336 0.3638,-0.4079 0.75516,-0.755166 0.39688,-0.347266 0.78824,-0.611849 0.23702,-0.159853 0.50712,-0.325218 0.27561,-0.165364 0.56224,-0.297656 0.28663,-0.132292 0.57877,-0.214974 0.29766,-0.08819 0.57878,-0.08819 0.226,0 0.44649,0.06615 0.22048,0.06615 0.39687,0.187413 0.17639,0.115756 0.28663,0.286633 0.11025,0.170876 0.11025,0.380338 0,0.09371 -0.0276,0.20395 -0.011,0.0441 -0.0441,0.154341 -0.0331,0.110243 -0.0827,0.170877 l 0.011,-0.01102 q -0.022,0.07166 -0.0772,0.08268 -0.0496,0.01102 -0.10473,0.01102 -0.16536,0 -0.28112,-0.08268 -0.11576,-0.08268 -0.21497,-0.176389 -0.0992,-0.09922 -0.19844,-0.181902 -0.0937,-0.08268 -0.226,-0.08268 h -0.14883 q -0.42995,0.09371 -0.91502,0.352778 -0.48507,0.253559 -0.97014,0.622874 -0.47955,0.363803 -0.92053,0.8158 -0.44097,0.451996 -0.77721,0.937066 -0.33624,0.48507 -0.54019,0.986677 -0.19844,0.496094 -0.19844,0.953603 0,0.374827 0.17088,0.644923 0.17087,0.264583 0.49609,0.523655 h -0.006 q 0.17087,0.110243 0.36931,0.187413 0.20395,0.07717 0.39688,0.07717 0.19844,0 0.42995,-0.07717 0.23702,-0.07717 0.46853,-0.192925 0.23702,-0.115756 0.45751,-0.25356 0.226,-0.137804 0.4079,-0.253559 0.58429,-0.380339 0.98667,-0.903994 0.40239,-0.523655 0.66146,-1.085895 0.011,-0.02756 0.0221,-0.05512 0.011,-0.02205 0.0165,-0.0441 0.006,-0.02756 0.011,-0.0441 z"
       id="text8"
       style="font-size:11.2889px;font-family:'MV Boli';-inkscape-font-specification:'MV Boli, Normal';fill:#ff6600;stroke-width:0.265"
       aria-label="G" /><path
       d="m 124.05724,70.697345 q 0,-0.159852 0.0386,-0.380339 0.0386,-0.225998 0.0386,-0.556728 -0.1819,0.132292 -0.40239,0.314193 -0.22048,0.181902 -0.45751,0.347266 -0.23702,0.165365 -0.47404,0.28112 -0.23151,0.110244 -0.43546,0.110244 -0.16537,0 -0.3142,-0.04961 -0.14883,-0.04961 -0.25356,-0.132292 -0.29214,-0.23151 -0.42443,-0.463021 -0.12678,-0.231511 -0.12678,-0.540192 0,-0.137803 0.0221,-0.286632 0.0276,-0.148828 0.0772,-0.341754 0.20946,-0.870921 0.71658,-1.60955 0.51263,-0.744141 1.26779,-1.267796 0.29215,-0.20395 0.58429,-0.259072 0.29215,-0.06063 0.57878,-0.06063 0.12678,0 0.28112,0.01654 0.15985,0.01654 0.28663,0.03307 0.12678,-0.02756 0.20395,-0.03859 0.0827,-0.01102 0.17088,-0.01102 0.16536,0 0.27561,0.0441 0.11024,0.0441 0.17639,0.121267 0.0661,0.07166 0.0937,0.170877 0.0331,0.09371 0.0331,0.198438 0,0.143316 -0.0441,0.275608 -0.0441,0.126779 -0.0882,0.259071 l -0.7276,2.904908 q -0.0221,0.237023 -0.0386,0.43546 -0.0165,0.198438 -0.0661,0.369315 -0.0165,0.04961 -0.0441,0.12678 -0.0221,0.07166 -0.0772,0.143316 -0.0551,0.06615 -0.1378,0.115755 -0.0827,0.04961 -0.21498,0.04961 -0.17088,0 -0.27561,-0.02205 -0.0992,-0.02205 -0.15434,-0.06063 -0.0551,-0.0441 -0.0716,-0.09922 -0.0165,-0.06063 -0.0165,-0.137804 z m -1.83004,-1.664672 q -0.022,0.07717 -0.0496,0.220487 -0.022,0.143316 -0.022,0.286632 0,0.148828 0.0441,0.270096 0.0441,0.115755 0.19293,0.115755 0.23151,0 0.42995,-0.09922 0.20395,-0.104731 0.38033,-0.248047 0.23703,-0.192925 0.47956,-0.429948 0.24805,-0.242535 0.46302,-0.507119 0.22049,-0.264583 0.38585,-0.540191 0.17088,-0.28112 0.24805,-0.556728 0.0441,-0.159853 0.0717,-0.369315 0.0331,-0.209462 0.0331,-0.374827 0,-0.07166 -0.0331,-0.137804 -0.0331,-0.07166 -0.12678,-0.07166 -0.2701,0 -0.5457,0.104731 -0.2701,0.104731 -0.52366,0.28112 -0.25356,0.176389 -0.48507,0.418924 -0.226,0.237023 -0.41341,0.512631 -0.18741,0.270096 -0.32522,0.56224 -0.13229,0.286632 -0.20395,0.56224 z"
       id="text7"
       style="font-size:11.2889px;font-family:'MV Boli';-inkscape-font-specification:'MV Boli, Normal';fill:#ff5555;stroke-width:0.265"
       aria-label="a" /><path
       d="m 126.96217,70.366616 q 0.0717,-0.385851 0.16536,-0.848873 0.0937,-0.463021 0.19293,-0.937067 0.0992,-0.474045 0.19292,-0.931554 0.0937,-0.45751 0.15986,-0.837848 -0.006,-0.05512 -0.006,-0.09371 0,-0.0441 0,-0.09371 0,-0.170877 0.0221,-0.341754 0.0221,-0.170877 0.0606,-0.314193 0.0606,-0.209462 0.13229,-0.28112 0.0772,-0.07717 0.24253,-0.07717 0.15986,0 0.25356,0.06615 0.0992,0.06063 0.15434,0.165365 0.0551,0.104731 0.0717,0.242535 0.0165,0.132291 0.0165,0.275608 0,0.07717 -0.006,0.170876 -0.006,0.09371 -0.006,0.148829 0.15434,-0.159853 0.32522,-0.325218 0.17639,-0.170877 0.36932,-0.303168 0.19843,-0.137804 0.41341,-0.225999 0.22048,-0.08819 0.45751,-0.08819 0.0937,0 0.1819,0.01654 0.0937,0.01654 0.18741,0.0441 0.11024,0.02756 0.226,0.07717 0.12127,0.0441 0.23151,0.126779 0.1819,0.137804 0.30317,0.347266 0.12678,0.20395 0.12678,0.418924 0,0.08268 -0.0331,0.181902 -0.0331,0.09371 -0.0937,0.176389 -0.0551,0.07717 -0.13229,0.132291 -0.0772,0.04961 -0.17088,0.04961 -0.0937,0 -0.23151,-0.0441 -0.13229,-0.04961 -0.22049,-0.12678 -0.0386,-0.03307 -0.0827,-0.09371 -0.0386,-0.06063 -0.0772,-0.121267 -0.0331,-0.06063 -0.0661,-0.110243 -0.0276,-0.05512 -0.0441,-0.07166 -0.0276,-0.0055 -0.0606,-0.0055 -0.0331,-0.0055 -0.0606,-0.0055 -0.28112,0 -0.53468,0.143316 -0.25356,0.143316 -0.47405,0.352778 -0.22048,0.20395 -0.4079,0.440973 -0.1819,0.231511 -0.3197,0.418924 -0.11024,0.446485 -0.24805,0.953604 -0.13229,0.501606 -0.26458,1.052822 v 0.137804 q 0,0.165365 -0.011,0.336241 -0.011,0.170877 -0.0661,0.303169 -0.0606,0.08268 -0.17639,0.137804 -0.11024,0.06063 -0.25907,0.06063 -0.23151,0 -0.34727,-0.148828 -0.11575,-0.154341 -0.11575,-0.358291 0,-0.09371 0.0276,-0.192925 z"
       id="text6"
       style="font-size:11.2889px;font-family:'MV Boli';-inkscape-font-specification:'MV Boli, Normal';fill:#00ffff;stroke-width:0.265"
       aria-label="r" /><path
       d="m 131.5979,69.043698 q 0.0717,-0.297657 0.18741,-0.595313 0.12127,-0.297657 0.29766,-0.589801 0.17639,-0.292145 0.41892,-0.567753 0.24254,-0.28112 0.56776,-0.534679 0.22048,-0.176389 0.46302,-0.33073 0.24805,-0.159852 0.5016,-0.275607 0.25356,-0.115756 0.50712,-0.181902 0.25907,-0.07166 0.50712,-0.07166 0.1819,0 0.31971,0.03307 0.14331,0.02756 0.27009,0.08268 0.0551,-0.192926 0.29215,-1.036286 0.24253,-0.84336 0.5898,-2.34818 0.0606,-0.148828 0.17088,-0.248047 0.11024,-0.09922 0.26458,-0.09922 0.11024,0 0.21497,0.02205 0.10473,0.01654 0.18742,0.07717 0.0827,0.05512 0.13229,0.154341 0.0496,0.09922 0.0496,0.259071 l -1.10795,4.426263 q -0.0496,0.187414 -0.0937,0.507119 -0.0441,0.314193 -0.0827,0.666971 -0.0386,0.352778 -0.0606,0.700044 -0.022,0.341754 -0.022,0.589801 0,0.308681 -0.0717,0.61185 -0.0331,0.132291 -0.0717,0.225998 -0.0331,0.08819 -0.0937,0.148828 -0.0606,0.05512 -0.15434,0.08268 -0.0882,0.02205 -0.226,0.02205 -0.15985,0 -0.24805,-0.03307 -0.0882,-0.03307 -0.13229,-0.08819 -0.0441,-0.06063 -0.0551,-0.132292 -0.006,-0.07717 -0.011,-0.159852 0,-0.08819 -0.011,-0.17639 -0.006,-0.09371 -0.0441,-0.176389 -0.0661,0.0441 -0.1819,0.115756 -0.11575,0.07166 -0.23702,0.148828 -0.11576,0.07166 -0.22049,0.137804 -0.10473,0.06063 -0.15434,0.08819 -0.12678,0.07166 -0.28663,0.15434 -0.15985,0.07717 -0.34726,0.148828 -0.18191,0.06615 -0.38586,0.110243 -0.19843,0.0441 -0.40238,0.0441 -0.24805,0 -0.48507,-0.08268 -0.23151,-0.08268 -0.41893,-0.253559 -0.1819,-0.170877 -0.29214,-0.429948 -0.11024,-0.264584 -0.11024,-0.617362 0,-0.12678 0.011,-0.248047 0.0165,-0.12678 0.0551,-0.28112 z m 0.9536,-0.0441 q -0.0441,0.165365 -0.0441,0.319706 0,0.159852 0.0276,0.303168 0.0276,0.137804 0.0992,0.242535 0.0772,0.104731 0.19843,0.170877 0.12678,0.06063 0.32522,0.06063 0.11024,0 0.23702,-0.03858 0.12678,-0.03858 0.24805,-0.09371 0.12678,-0.06063 0.23151,-0.121267 0.11025,-0.06615 0.18742,-0.115756 0.20946,-0.137804 0.38585,-0.270095 0.1819,-0.132292 0.32521,-0.286633 0.14332,-0.15434 0.24805,-0.341753 0.11024,-0.192926 0.17639,-0.440973 0.0551,-0.220486 0.0937,-0.402388 0.0441,-0.181901 0.0772,-0.352778 0.0331,-0.176389 0.0606,-0.35829 0.0276,-0.181901 0.0551,-0.402388 -0.0276,-0.03307 -0.0772,-0.06063 -0.0441,-0.03307 -0.1378,-0.03307 -0.22049,0 -0.48507,0.07717 -0.26459,0.07166 -0.54571,0.209462 -0.2756,0.137804 -0.5457,0.336242 -0.26458,0.198437 -0.49609,0.446484 -0.226,0.242535 -0.39688,0.53468 -0.17088,0.292144 -0.24805,0.617361 z"
       id="text5"
       style="font-size:11.2889px;font-family:'MV Boli';-inkscape-font-specification:'MV Boli, Normal';fill:#c87137;stroke-width:0.265"
       aria-label="d" /><path
       d="m 137.74395,68.806675 q 0,-0.237023 0.12678,-0.402388 0.12678,-0.165364 0.33624,-0.220486 0.0606,-0.121267 0.18741,-0.325217 0.12678,-0.209462 0.31419,-0.451997 0.18742,-0.242535 0.42444,-0.48507 0.24254,-0.248047 0.52917,-0.446485 0.29214,-0.20395 0.62287,-0.33073 0.33624,-0.126779 0.71107,-0.126779 0.31971,0 0.55673,0.07717 0.23702,0.07717 0.39136,0.214974 0.15434,0.137804 0.23151,0.33073 0.0772,0.187413 0.0772,0.407899 0,0.187414 -0.0496,0.358291 -0.0772,0.308681 -0.28663,0.540191 -0.20946,0.231511 -0.49609,0.4079 -0.28112,0.170877 -0.61737,0.286632 -0.33072,0.115755 -0.66697,0.192926 -0.33073,0.07717 -0.63941,0.121267 -0.30868,0.03858 -0.53468,0.06063 -0.0496,0.09922 -0.0882,0.253559 -0.0331,0.148828 -0.0331,0.292145 0,0.319705 0.25356,0.496094 0.25355,0.176389 0.70004,0.176389 0.25907,0 0.49609,-0.05512 0.23703,-0.06063 0.44649,-0.148828 0.21497,-0.09371 0.40239,-0.198438 0.18741,-0.110243 0.34175,-0.214974 0.19844,-0.132292 0.37483,-0.220486 0.1819,-0.09371 0.3197,-0.09371 0.13781,0 0.17639,0.07166 0.0386,0.06615 0.0386,0.143316 0,0.0441 -0.006,0.08819 0,0.03858 -0.006,0.06615 -0.0276,0.143316 -0.11024,0.286632 -0.0827,0.143316 -0.20946,0.248047 -0.57327,0.451997 -1.1796,0.644923 -0.60083,0.192925 -1.28434,0.192925 -0.13229,0 -0.31419,-0.01654 -0.17639,-0.01654 -0.36932,-0.06615 -0.19292,-0.04961 -0.38033,-0.143316 -0.18742,-0.09371 -0.33625,-0.248047 -0.14331,-0.154341 -0.23702,-0.380339 -0.0882,-0.225999 -0.0882,-0.545704 0,-0.259071 0.0717,-0.578777 -0.0717,-0.01102 -0.1378,-0.07166 -0.0606,-0.06615 -0.0606,-0.187413 z m 3.45061,-1.526868 q 0.011,-0.02756 0.011,-0.04961 0,-0.02205 0,-0.04961 0,-0.148828 -0.11024,-0.220486 -0.11024,-0.07717 -0.26458,-0.07717 -0.24254,0 -0.47956,0.126779 -0.23151,0.12678 -0.44097,0.319705 -0.20395,0.187414 -0.36381,0.4079 -0.15985,0.214974 -0.24804,0.391363 0.39687,-0.03307 0.7276,-0.104731 0.33073,-0.07717 0.57326,-0.187413 0.24805,-0.115755 0.39688,-0.253559 0.15434,-0.143316 0.19844,-0.303169 z m -0.63941,-1.493795 z"
       id="text4"
       style="font-size:11.2889px;font-family:'MV Boli';-inkscape-font-specification:'MV Boli, Normal';fill:#0000ff;stroke-width:0.265"
       aria-label="e" /><g
       id="g28"
       transform="matrix(0.67125403,0,0,0.67125403,44.208891,21.366364)"><path
         style="fill:none;stroke:#000000;stroke-width:1.13966;stroke-dasharray:none;stroke-opacity:1"
         d="m 147.59014,74.590331 0.17861,-8.593554 c -0.0418,-4.490841 8.10628,-5.244012 7.44642,-0.03982 l 0.37971,9.257668"
         id="path21" /><path
         style="fill:none;stroke:#000000;stroke-width:0.214524;stroke-dasharray:none;stroke-opacity:1"
         d="m 150.3989,62.701673 0.14079,12.53"
         id="path22" /><path
         style="fill:none;stroke:#000000;stroke-width:0.214524;stroke-dasharray:none;stroke-opacity:1"
         d="m 151.15915,62.589044 0.33789,12.473686"
         id="path23" /><path
         style="fill:none;stroke:#000000;stroke-width:0.214524;stroke-dasharray:none;stroke-opacity:1"
         d="m 152.06018,62.701673 c 0.25342,12.389213 0.25342,12.389213 0.25342,12.389213"
         id="path24" /><path
         style="fill:none;stroke:#000000;stroke-width:0.214524;stroke-dasharray:none;stroke-opacity:1"
         d="m 152.96121,62.673516 0.42237,12.361056"
         id="path25" /><path
         style="fill:none;stroke:#000000;stroke-width:0.214524;stroke-dasharray:none;stroke-opacity:1"
         d="m 154.20014,63.490078 0.16894,11.600808"
         id="path26" /><path
         style="fill:none;stroke:#000000;stroke-width:0.214524;stroke-dasharray:none;stroke-opacity:1"
         d="m 149.46971,63.264819 0.11263,11.769753"
         id="path27" /><path
         style="fill:none;stroke:#000000;stroke-width:0.214524;stroke-dasharray:none;stroke-opacity:1"
         d="m 148.62499,64.137695 0.11263,10.896877"
         id="path28" /></g><path
       style="fill:none;stroke:#000000;stroke-width:0.765;stroke-dasharray:none;stroke-opacity:1"
       d="m 151.91611,71.436738 -0.20095,-11.554465 -5.1258,-0.115905 -5.37369,0.718747"
       id="path29" /><path
       style="fill:none;stroke:#000000;stroke-width:0.765;stroke-dasharray:none;stroke-opacity:1"
       d="m 149.29741,59.942268 -0.63942,1.42091"
       id="path30" /><path
       style="fill:none;stroke:#000000;stroke-width:0.765;stroke-dasharray:none;stroke-opacity:1"
       d="m 146.88185,60.226449 v 1.420913"
       id="path31" /><path
       style="fill:none;stroke:#000000;stroke-width:0.765003;stroke-dasharray:none;stroke-opacity:1"
       d="m 143.25853,60.527554 0.49732,0.7815 v 0.213138"
       id="path32" /><path
       style="fill:none;stroke:#000000;stroke-width:0.765;stroke-dasharray:none;stroke-opacity:1"
       d="m 151.74848,59.800176 2.8063,0.355227 -0.17762,-1.598525 -7.74396,-0.461796 -7.38874,1.740617 2.27345,0.532841"
       id="path33" /><path
       style="fill:none;stroke:#000000;stroke-width:0.765;stroke-dasharray:none;stroke-opacity:1"
       d="m 140.94955,65.270685 0.56836,-4.937668"
       id="path34" /><path
       style="fill:none;stroke:#000000;stroke-width:0.904347;stroke-dasharray:none;stroke-opacity:1"
       d="m 55.074099,59.789736 44.826218,-1.251944 c 0,0 -1.733998,-4.048888 -3.149551,-3.418764 -0.959479,0.427106 -35.942041,1.962552 -44.606487,1.444548 -1.450069,-0.08669 2.92982,3.22616 2.92982,3.22616 z"
       id="path35" /></g></svg>
